<svg class="SVGInline-svg" viewBox="0 0 20 20" version="1.1" xmlns="http://www.w3.org/2000/svg" xmlns:xlink="http://www.w3.org/1999/xlink">
  <title>News</title>
  <path d="M14.3934028,19.9999994 C14.2781817,20.0001842 14.1669345,19.9539832 14.0809028,19.870218 L9.10902778,15.027322 L0.46875,15.027322 C0.209866524,15.027322 0,14.7979597 0,14.5150269 L0,0.512295068 C0,0.229362314 0.209866524,-1.77635684e-15 0.46875,-1.77635684e-15 L19.53125,-1.77635684e-15 C19.7901335,-1.77635684e-15 20,0.229362314 20,0.512295068 L20,14.5150269 C20,14.7979597 19.7901335,15.027322 19.53125,15.027322 L14.9090278,15.027322 L14.8621528,19.494535 C14.8587333,19.7747966 14.649865,20.0000244 14.3934028,19.9999994 Z M5,4.37158458 C4.44771525,4.37158458 4,4.81929983 4,5.37158458 L4,5.55737687 C4,6.10966162 4.44771525,6.55737687 5,6.55737687 L15,6.55737687 C15.5522847,6.55737687 16,6.10966162 16,5.55737687 L16,5.37158458 C16,4.81929983 15.5522847,4.37158458 15,4.37158458 L5,4.37158458 Z M5,8.74316916 C4.44771525,8.74316916 4,9.19088441 4,9.74316916 L4,9.92896145 C4,10.4812462 4.44771525,10.9289614 5,10.9289614 L9,10.9289614 C9.55228475,10.9289614 10,10.4812462 10,9.92896145 L10,9.74316916 C10,9.19088441 9.55228475,8.74316916 9,8.74316916 L5,8.74316916 Z"></path>
</svg>