<svg class="SVGInline-svg" viewBox="0 0 20 20" version="1.1" xmlns="http://www.w3.org/2000/svg" xmlns:xlink="http://www.w3.org/1999/xlink">
  <path d="M10.0167067,8.2697506 L10.0167067,16.1898235 C8.84707973,16.2579373 8.20012146,16.3298022 8.07583188,16.4054181 C7.54372321,16.7285503 7.1430874,17.4890432 7.1430874,17.4890432 C7.1430874,17.4890432 6.24393539,18.8564664 5.13590461,19.548702 C3.4781226,20.585022 0.408723325,19.9940916 0.106798972,16.1135821 C-0.0289621942,14.3686997 -0.0289621942,13.3930912 0.071054184,12.1116255 C0.352044771,8.51141713 0.955500279,5.9499588 2.31884739,5.10150205 C3.82599157,4.16355555 5.17853683,4.54861152 6.04129699,4.88137392 C6.72193517,5.14301601 7.21761944,5.73459001 7.77931684,6.01158837 C7.96156618,6.10126698 8.52262164,6.16993246 9.4624832,6.21758482 C9.43185401,4.52893782 9.47097542,2.43568206 9.57984745,1.78061554 C9.78963925,0.518329905 10.7626717,-0.0725922883 12.2973091,0.00710300595 C12.5974728,0.0597386883 12.7475547,0.248781845 12.7475547,0.574232477 C12.7475547,0.899683109 12.5814491,1.0599889 12.249238,1.05514986 C11.1597986,0.998574156 10.6609022,1.30155372 10.5509129,1.9633426 C10.4539941,2.54648837 10.4197616,4.59428117 10.4482154,6.21207721 C11.4401786,6.17175394 12.0310012,6.10492432 12.2206832,6.01158837 C12.7823806,5.73459001 13.2780648,5.14301601 13.958703,4.88137392 C14.8214632,4.54861152 16.1740084,4.16355555 17.6811526,5.10150205 C19.0444997,5.9499588 19.6479552,8.51141713 19.9289458,12.1116255 C20.0289622,13.3930912 20.0289622,14.3686997 19.893201,16.1135821 C19.5912767,19.9940916 16.5218774,20.585022 14.8640954,19.548702 C13.7560646,18.8564664 12.8569126,17.4890432 12.8569126,17.4890432 C12.8569126,17.4890432 12.4562768,16.7285503 11.9241681,16.4054181 C11.7998785,16.3298022 11.1647985,16.2579373 10.0189281,16.1898235 L10.0189281,8.26933259 L10.0167067,8.2697506 Z M7.49357544,12.6297187 C7.77671628,12.6297187 8.00624139,12.3959723 8.00574392,12.1071732 L8.00574392,11.7155058 C8.00574392,11.4257399 7.77621882,11.1919935 7.49307797,11.1919935 L6.21072218,11.1919935 L6.21072218,9.88467688 C6.21072218,9.59538054 5.98119708,9.3611646 5.69805624,9.3611646 L5.31343241,9.3611646 C5.03029157,9.3611646 4.80076646,9.59587776 4.80076646,9.88467688 L4.80076646,11.1915239 L3.51841067,11.1915239 C3.23526983,11.1915239 3.00574473,11.4257399 3.00574473,11.7150362 L3.00574473,12.1071732 C3.00574473,12.3964419 3.23526983,12.6297187 3.51841067,12.6297187 L4.80129157,12.6297187 L4.80129157,13.9380022 C4.80129157,14.2277681 5.03078903,14.4614868 5.31392988,14.4614868 L5.6985537,14.4614868 C5.98169454,14.4614868 6.21121965,14.2272985 6.21121965,13.9380022 L6.21121965,12.6297187 L7.49357544,12.6297187 Z M13.1493044,13.1084527 C13.7747038,13.1084527 14.2823668,12.5919682 14.2818135,11.9532192 C14.2818135,11.3150233 13.7747364,10.7985388 13.1493044,10.7985388 C12.5238724,10.7985388 12.0168279,11.3155764 12.0168279,11.9532192 C12.0168279,12.5919682 12.5238724,13.1084527 13.1493044,13.1084527 Z M16.0476956,11.3639213 C16.6662918,11.3639213 17.1676724,10.8525773 17.1676398,10.2211812 C17.1676398,9.59154199 16.6662918,9.08016549 16.0476956,9.08016549 C15.4290668,9.08016549 14.9277188,9.59150945 14.9277188,10.2211812 C14.9277188,10.8525773 15.4290668,11.3639213 16.0476956,11.3639213 Z M16.0476956,15.1227016 C16.6662918,15.1227016 17.1676724,14.6113576 17.1676398,13.9799615 C17.1676398,13.3503223 16.6662918,12.8389458 16.0476956,12.8389458 C15.4290668,12.8389458 14.9277188,13.3502898 14.9277188,13.9799615 C14.9277188,14.6113576 15.4290668,15.1227016 16.0476956,15.1227016 Z"></path>
</svg>