<svg class="SVGInline-svg" viewBox="0 0 20 20" version="1.1" xmlns="http://www.w3.org/2000/svg" xmlns:xlink="http://www.w3.org/1999/xlink">
  <title>Movies</title>
  <path d="M19.649348,10 C19.649348,4.47713219 15.2507116,0 9.82467402,0 C4.39863643,0 0,4.47713219 0,10 C0,15.5228678 4.39863643,20 9.82467402,20 L19.649348,20 C19.883116,19.8351583 20,19.5637002 20,19.1856258 C20,18.8075513 19.883116,18.5234538 19.649348,18.3333333 L15.2487128,18.3333333 C17.995512,16.4823405 19.6481487,13.3532715 19.649348,10 Z M14.6370693,16.7419433 C13.5397088,17.5533041 12.0034042,17.3059082 11.2062688,16.1885579 C10.4091334,15.0716146 10.6521918,13.5083008 11.7495522,12.6965332 C12.8473124,11.8851725 14.3832173,12.1325683 15.1803526,13.2499186 C15.9778878,14.366862 15.7344298,15.9301758 14.6370693,16.7419433 Z M14.5163396,5.81990563 C15.8063878,5.39306646 17.1919802,6.11165365 17.6113359,7.42472333 C18.0302917,8.7381999 17.3243031,10.1485189 16.034255,10.5749511 C14.7442068,11.0017904 13.3586144,10.2832031 12.9392588,8.97013344 C12.520303,7.65706375 13.2262915,6.24633792 14.5163396,5.81990563 Z M9.82467402,1.66666667 C11.1810835,1.66666667 12.2808425,2.78605146 12.2808425,4.16666667 C12.2808425,5.54728188 11.1810835,6.66666667 9.82467402,6.66666667 C8.46826459,6.66666667 7.36850552,5.54728188 7.36850552,4.16666667 C7.36850552,2.78605146 8.46826459,1.66666667 9.82467402,1.66666667 Z M2.03801216,7.42472333 C2.45736783,6.11165365 3.84296024,5.39306646 5.1330084,5.81949875 C6.42305657,6.24633792 7.12904505,7.65665687 6.71008923,8.96972656 C6.29073366,10.2827962 4.90514126,11.0013834 3.61509309,10.5749511 C2.32504493,10.1485189 1.61905634,8.7381999 2.03801216,7.42472333 Z M8.44307924,16.1885579 C7.64594387,17.3059082 6.10963923,17.5533041 5.01227871,16.7419433 C3.9149183,15.9301758 3.67146021,14.366862 4.46899542,13.2499186 C5.26613079,12.1329752 6.80243543,11.8851725 7.89979585,12.6969401 C8.99715626,13.5083008 9.2402146,15.0716146 8.44307924,16.1885579 Z M9.00595119,10 C9.00595119,9.5397949 9.37253751,9.16666667 9.82467402,9.16666667 C10.2768105,9.16666667 10.6433969,9.5397949 10.6433969,10 C10.6433969,10.4602051 10.2768105,10.8333333 9.82467402,10.8333333 C9.37253751,10.8333333 9.00595119,10.4602051 9.00595119,10 Z"></path>
</svg>