<svg class="SVGInline-svg" viewBox="0 0 20 20" version="1.1" xmlns="http://www.w3.org/2000/svg" xmlns:xlink="http://www.w3.org/1999/xlink">
    <title>TV Shows</title>
    <path d="M18.5489657,3.4086679 L12.3660213,3.4086679 L14.5615131,0.771716993 C14.5575272,0.477526331 14.4544916,0.266357227 14.2524064,0.138209683 C14.0503212,0.0100621385 13.7763598,-0.017832465 13.4305222,0.0545258726 L10.814943,3.4086679 L9.18510114,3.4086679 L6.56952192,0.0545258726 C6.24706858,-0.0396981479 5.9796343,-0.0118035445 5.76721908,0.138209683 C5.55480385,0.28822291 5.44524117,0.499392014 5.43853104,0.771716993 L7.63402288,3.4086679 L1.45099017,3.4086679 C0.65090364,3.4086679 0,4.08589512 0,4.9182925 L0,18.4903754 C0,19.3227728 0.65090364,20 1.45099017,20 L18.5490098,20 C19.3490964,20 20,19.3227728 20,18.4903754 L20,4.9182925 C19.9999558,4.08589512 19.3490522,3.4086679 18.5489657,3.4086679 Z M14.0254437,16.679322 C14.0254437,17.1325217 13.6723318,17.4999599 13.2367037,17.4999599 L3.14295112,17.4999599 C2.70736709,17.4999139 2.35425529,17.1325217 2.35425529,16.679322 L2.35425529,6.72939186 C2.35425529,6.27619212 2.70736709,5.90875397 3.14299527,5.90875397 L13.2367037,5.90875397 C13.6722877,5.90875397 14.0254437,6.27619212 14.0254437,6.72939186 L14.0254437,16.679322 Z M16.9444218,16.3024078 C16.1897656,16.3024078 15.5757714,15.6893035 15.5757714,14.9357412 C15.5757714,14.1821347 16.1897656,13.5690745 16.9444218,13.5690745 C17.6990779,13.5690745 18.3130722,14.1821347 18.3130722,14.9357412 C18.3130722,15.6893476 17.6990779,16.3024078 16.9444218,16.3024078 Z M16.9444218,9.72497102 C16.1897656,9.72497102 15.5757714,9.11191081 15.5757714,8.35830436 C15.5757714,7.60469791 16.1897656,6.99163769 16.9444218,6.99163769 C17.6990779,6.99163769 18.3130722,7.60469791 18.3130722,8.35830436 C18.3130722,9.11191081 17.6990779,9.72497102 16.9444218,9.72497102 Z"></path>
</svg>